<?xml version="1.0" encoding="utf-8"?>
<!-- Generator: Adobe Illustrator 24.1.2, SVG Export Plug-In . SVG Version: 6.00 Build 0)  -->
<svg version="1.1" id="Layer_1" xmlns="http://www.w3.org/2000/svg" xmlns:xlink="http://www.w3.org/1999/xlink" x="0px" y="0px"
	 viewBox="0 0 1000 1000" style="enable-background:new 0 0 1000 1000;" xml:space="preserve">
<style type="text/css">
	.st0{fill:#23395B;}
	.st1{fill:#2A92AC;}
</style>
<g>
	<g>
		<g>
			<path class="st0" d="M265.51,249.6c-33.86,3.57-50.79,5.36-84.65,8.93c-8.76,0.92-8.76,3.96-8.76,9.99c0,85.96,0,171.91,0,257.87
				c0,10.38-0.58,12.9-10.51,13.21c-12.38,0.38-18.57,0.56-30.94,0.94c-11.67,0.35-12.84-1.6-12.84-13.3c0-82.88,0-165.76,0-248.64
				c0-6.93,0-6.94-8.17-6.09c-6.48,0.67-9.72,1.01-16.2,1.68c-7,0.73-7.59,0.31-7.59-7.12c-3.33-18.67-4.99-28.11-8.32-47.31
				c0-8.67,0-9.21,10.51-10.44c60.72-7.13,121.43-14.25,182.15-21.38c8.76-1.03,9.34,0.52,9.34,10.04c0,16.07,0,24.02,0,39.79
				C279.52,246.59,277.77,248.31,265.51,249.6z M274.27,314.5c0,14.65,2.34,14.93,28.03,12.72c4.44-0.38,6.66-0.57,11.09-0.95
				c11.68-1,12.84-14.89,12.84-20.02c0-46.31,0-69.66,0-117.94c0-6.94,4.67-7.5,11.68-8.32c14.48-1.7,21.72-2.55,36.2-4.25
				c4.67-0.55,6.43,0.33,6.43,3.03c0,113.55,0,227.09,0,340.64c0,10.94,0,14.61-10.51,14.92c-14.71,0.44-22.07,0.66-36.78,1.11
				c-13.43,0.4-14.6-3.2-14.6-18.57c0-40.32,0-60.14,0-99.9c0-15.16-0.59-19.16-11.09-18.46c-12.55,0.83-18.83,1.25-31.38,2.09
				c-5.84,0.39-7.01,3.46-7.01,11.93c0,43.32,0,64.87,0,108.9c0,8.11-2.33,11.74-8.76,11.94c-13.6,0.42-20.41,0.63-34.01,1.06
				c-8.76,0.27-9.34-2.23-9.34-12.73c0-79.72,0-159.45,0-239.17c0-7.56,0.59-8.14,9.93-9.08c15.18-1.53,22.77-2.3,37.95-3.83
				c4.67-0.47,9.34-0.41,9.34,9.8c0,8.81,0,13.19,0,21.94C274.27,306.61,274.27,309.24,274.27,314.5z"/>
			<path class="st0" d="M470.41,163.33c33.29-5.78,119.32-18.58,118.52,38.34c0,30.31,0,45.33,0,75.28
				c0,29.51-25.11,51.07-45.54,52.71c-1.17,0.09-2.34,0.72-2.34,1.8c0.23,0.2,0.35,0.29,0.59,0.49
				c1.75,1.48,16.35,10.53,23.36,37.57c1.75,7.97,3.5,17.57,3.5,28.91c0,2.16,0,3.24,0,5.4c0,11.34-0.23,37.51,0,52.96
				c0.29,19.16,3.5,20.43,16.93,19.87c1.75-0.07,3.5-0.15,5.25-0.22c47.49-2,94.97-4,142.46-5.99c9.93-0.42,14.02,0.54,14.02,3.94
				c0,17.66,0,26.5,0,44.2c0,15.32,0,18.17-13.43,18.54c-53.32,1.45-106.65,2.89-159.97,4.34c-35.03,0.95-55.47-10.42-55.47-31.93
				c0-53.34,0-79.63,0-132.51c0-17.06-15.18-18.61-29.78-17.54c-6.54,0.48-9.81,0.72-16.35,1.2c0,50.1,0,100.21,0,150.31
				c0,12.76-1.75,14.97-12.84,15.31c-12.38,0.39-18.57,0.58-30.95,0.97c-5.25,0.16-8.76-5-8.76-13.93c0-88.56,0-177.11,0-265.67
				c-2.8,0.29-4.2,0.43-7.01,0.72c-11.68,1.2-15.18,1.58-15.18-12.2c0-19.93,0-29.96,0-50.24c0-12.94,1.17-14.2,18.1-16.19
				C437.48,167.2,448.46,165.91,470.41,163.33z M465.15,211.83c0,37.16,0,55.46,0,91.88c0,1.91,0,2.86,0,4.76
				c10.98-0.96,16.46-1.43,27.44-2.39c32.7-2.85,37.95-5.29,37.95-50.23c0-48.18-0.59-51.08-38.54-46.95
				C481.27,210.08,475.9,210.66,465.15,211.83z M716.06,316.39c-11.15,0.89-16.72,1.34-27.87,2.23c-5.25,0.42-9.34,1.3-9.34,7.42
				c0,19.35,0,29.01,0,48.33c0,3.33,3.5,7,7.59,6.73c17.75-1.15,26.62-1.72,44.37-2.86c11.68-0.75,12.26-0.23,12.26,12.18
				c0,17.6,0,26.4,0,44.02c0,7.34-1.75,9.12-7.59,9.4c-41.8,2.02-62.7,3.03-104.51,5.06c-11.09,0.54-11.09-0.56-11.09-12.61
				c0-89.92,0-179.85,0-269.77c0-12.31,0-16.26,10.51-17.48c37.37-4.37,56.05-6.55,93.42-10.92c22.77-2.66,22.77-2.08,22.77,9.94
				c0,14.88,0,22.3,0,37.13c0,11.97-1.17,14.93-7.59,15.61c-23.82,2.51-35.73,3.76-59.55,6.27c-2.92,0.31-7,4.11-7,10.27
				c0,16.13,0,24.18,0,40.24c0,6.14,8.17,5.93,12.26,5.55c12.55-1.17,18.82-1.75,31.37-2.92c12.26-1.14,12.26-1.14,12.26,10.71
				c0,10.6,0,15.9,0,26.49C728.32,309.22,728.32,315.41,716.06,316.39z"/>
			<path class="st0" d="M773.31,143.83c0-9.2,2.92-14.73,9.34-15.48c51.61-6.05,77.42-9.08,129.02-15.13
				c7.01-0.82,8.17,0.22,8.17,11.41c0,24.5,0,36.75,0,61.24c0,9.42-1.17,10.72-7.59,11.37c-28.26,2.89-42.38,4.34-70.64,7.23
				c-11.68,1.2-11.68,1.2-11.68,12.76c0,27.51,0,41.25,0,68.71c0,8.07,0.59,8.6,11.09,7.73c20.32-1.69,30.48-2.53,50.79-4.21
				c7.01-0.58,7.59-0.05,7.59,8.74c0,20.16,0,30.24,0,50.39c0,11.13-1.75,12.42-8.76,12.88c-24.29,1.6-36.43,2.41-60.72,4.01
				c-7.59,0.5-8.17,3.99-8.17,9.74c0,28.93,0,43.39,0,72.33c0,4.61,0.58,5.16,7,4.87c30.83-1.4,46.24-2.1,77.06-3.49
				c12.26-0.56,12.85-0.58,12.85,11.78c-3.33,19.21-4.99,28.8-8.32,47.95c0,9.4-1.75,10.63-7.01,10.78
				c-49.68,1.48-74.52,2.22-124.2,3.7c-4.67,0.14-5.84-0.4-5.84-7.82C773.31,391.5,773.31,267.67,773.31,143.83z"/>
		</g>
		<g>
			<path class="st0" d="M183.68,580.18c8.38,7.23,13.6,14.59,13.6,30.22c0,35.77,0,54.03,0,91.94c0,38.56-8.1,52.86-39.35,52.75
				c-15.28-0.05-22.92-0.08-38.19-0.13c-5.79-0.02-6.08-2.28-6.08-7.87c0-56.81,0-113.61,0-170.42c0-3.21,2.02-5.23,6.08-5.32
				c11.46-0.26,17.19-0.4,28.64-0.66C161.69,570.4,176.27,573.79,183.68,580.18z M142.88,600.07c-3.47,0.06-2.03,2.3-2.03,4.32
				c0,32.01,0,48.33,0,82.16c0,11.31,0,17.03,0,28.59c0,2.07,0,3.11,0,5.19c5.09,0.01,7.64,0.01,12.73,0.01c-1.5,0-2.25,0-3.75,0
				c16.49,0.02,18.81-19.42,18.81-35.46c0-20.11,0-29.97,0-49.42c0-9.31-0.28-17.54-2.89-24.09c-3.43-8.6-3.77-11.62-12.45-11.47
				C149.12,599.96,147.04,600,142.88,600.07z"/>
			<path class="st0" d="M246.75,570.22c57.87-1.31,58.74,11.02,58.74,22.97c0,14.24,0,21.41,0,35.87
				c0,14.26-12.44,23.99-22.57,24.06c-0.58,0-1.16,0.27-1.16,0.81c0.12,0.11,0.17,0.16,0.29,0.26c0.87,0.79,8.1,5.77,11.57,19.51
				c0.87,4.04,1.74,8.91,1.74,14.62c0,1.09,0,1.63,0,2.72c0,5.72-0.12,19.01,0,26.92c0.14,9.82,1.74,10.56,8.39,10.57
				c0.87,0,1.74,0,2.6,0c28.24,0.05,42.36,0.07,70.61,0.12c4.92,0.01,6.94,0.57,6.94,2.26c0,8.77,0,13.18,0,22.05
				c0,7.68,0,9.12-6.66,9.1c-31.71-0.11-47.57-0.17-79.29-0.28c-17.36-0.06-27.49-6.39-27.49-17.63c0-27.89,0-41.49,0-68.21
				c0-8.62-7.52-9.9-14.76-9.86c-3.24,0.02-4.86,0.02-8.1,0.04c0,31.92,0,48.23,0,81.9c0,6.76-0.87,7.9-6.37,7.88
				c-6.13-0.02-9.2-0.03-15.34-0.05c-2.6-0.01-4.34-2.85-4.34-7.63c0-46.75,0-93.51,0-140.26c-1.39,0.02-2.08,0.03-3.47,0.05
				c-5.79,0.09-7.52,0.1-7.52-6.55c0-9.61,0-14.39,0-23.89c0-6.07,0.58-6.57,8.97-6.76C230.42,570.59,235.86,570.47,246.75,570.22z
				 M244.14,592.73c0,17.64,0,26.55,0,44.6c0,0.94,0,1.42,0,2.36c5.44-0.05,8.16-0.07,13.6-0.12c16.21-0.15,18.81-1.35,18.81-23.01
				c0-23.23-0.29-24.39-19.1-24.06C252.13,592.59,249.46,592.63,244.14,592.73z M372.62,652.78c-7.18,0.05-10.76,0.07-17.94,0.12
				c-2.6,0.02-4.63,0.3-4.63,3.26c0,9.38,0,14.09,0,23.58c0,1.64,1.74,3.54,3.76,3.54c8.8-0.02,13.2-0.04,21.99-0.06
				c5.79-0.02,6.08,0.25,6.08,6.3c0,8.58,0,12.89,0,21.57c0,3.61-0.87,4.45-3.76,4.45c-20.72-0.01-31.08-0.02-51.8-0.03
				c-5.5,0-5.5-0.57-5.5-6.64c0-54.12,0-79.97,0-130.75c0-5.7,0-7.5,5.21-7.62c18.52-0.41,27.78-0.62,46.3-1.03
				c11.28-0.25,11.28,0.01,11.28,5.52c0,6.82,0,10.24,0,17.1c0,5.54-0.58,6.88-3.76,6.93c-11.81,0.19-17.71,0.29-29.52,0.48
				c-1.45,0.02-3.47,1.63-3.47,4.53c0,7.58,0,11.38,0,19.02c0,2.92,4.05,3.14,6.08,3.12c7.87-0.09,11.81-0.13,19.68-0.22
				c6.08-0.07,6.08-0.07,6.08,5.55c0,5.03,0,7.56,0,12.62C378.69,649.76,378.69,652.74,372.62,652.78z"/>
			<path class="st0" d="M465.77,565.54c5.79-0.13,5.5,1.21,6.37,4.66c7.37,59.49,14.53,119.02,21.41,178.58
				c0,4.57-4.05,5.99-6.08,5.98c-7.29-0.02-10.94-0.04-18.23-0.06c-6.37-0.02-5.79-0.6-6.66-6.01c-2.08-19.5-3.12-29.13-5.21-48.2
				c-1.16-1.39,0-2.79-16.21-2.77c-15.33,0.02-13.6,1.96-14.18,2.79c-2.55,17.9-3.82,26.93-6.37,45.21
				c-1.16,7.38-0.58,9.39-6.66,9.37c-7.41-0.02-11.11-0.04-18.52-0.06c-3.18-0.01-4.05-1.44-4.05-3.43c0-1.14,0.29-2.56,0.58-4.26
				c8.43-58.83,15.77-117.82,23.73-176.72c0.87-3.45,2.6-4.01,8.39-4.14C440.77,566.1,449.11,565.91,465.77,565.54z M431.34,654.82
				c0,0.76,0,1.15,0,1.91c0,5.18,2.89,7.36,6.37,7.34c0.35,0,0.52,0,0.87,0c6.25-0.03,9.38-0.05,15.63-0.08
				c3.47-0.02,4.05-3.32,4.05-8.25c-2.08-21.45-3.12-32.05-5.21-53.07c-0.58-4.82-0.29-4.82-4.63-4.75
				c-1.97,0.03-2.95,0.05-4.92,0.08c-4.05,0.07-6.08,0.36-6.66,4.92C434.81,613.92,432.5,639.01,431.34,654.82z"/>
			<path class="st0" d="M607.16,756.87c-0.35,0-0.52,0-0.87,0c-2.89-0.01-5.21-0.31-5.21-4.91c0-22.76,0-34.03,0-56.4
				c0-26.1,0-39.02,0-64.68c0-0.44,0-0.67,0-1.11c0-1.94-1.16-3.32-2.03-3.31c-1.16,0.01-2.31,1.13-3.18,3.64
				c-6.94,20.6-20.25,113.48-22.28,116.91c-1.16,2,1.16,2.87-11,2.83c-1.74-0.01-2.6-0.01-4.34-0.01c-6.08-0.02-5.79-1.45-6.65-6.03
				c-8.57-42.09-12.85-62.68-21.41-103.14c-0.29-1.37-0.58-3.57-1.74-3.56c-1.16,0.01-1.16,3.04-1.16,3.59
				c0,0,0.29,81.07,0.29,104.48c0,9.14-0.87,9.72-4.63,9.71c-5.9-0.02-8.85-0.03-14.76-0.05c-5.21-0.02-5.79-1.75-5.79-8.31
				c0-1.26,0-1.89,0-3.15c0-56.69,0-113.37,0-170.06c0-7.53,0.87-8.08,9.84-8.28c8.91-0.2,13.37-0.3,22.28-0.5
				c4.34-0.1,6.08,4.74,6.08,9.07c0,21.96,17.94,112.75,22.57,112.74c4.63-0.01,19.39-95.83,19.39-114.97
				c0-6.83,0.58-7.66,7.52-7.82c3.24-0.07,4.86-0.11,8.1-0.18c20.54-0.46,30.67-0.14,30.67,4c0,60.69,0,121.39,0,182.08
				c0,1.26,0,1.9,0,3.16c0,2.88-0.29,4.32-4.05,4.31C617.75,756.9,614.22,756.89,607.16,756.87z"/>
			<path class="st0" d="M648.52,568.89c0-4.43,1.45-6.95,4.63-7.02c25.58-0.57,38.37-0.86,63.95-1.43c3.47-0.08,4.05,0.47,4.05,5.81
				c0,11.68,0,17.54,0,29.26c0,4.51-0.58,5.08-3.76,5.13c-14.01,0.21-21.01,0.31-35.01,0.52c-5.79,0.09-5.79,0.08-5.79,5.68
				c0,13.33,0,20.01,0,33.42c0,3.94,0.29,4.22,5.5,4.18c10.07-0.08,15.1-0.12,25.17-0.2c3.47-0.03,3.76,0.25,3.76,4.5
				c0,9.75,0,14.64,0,24.43c0,5.41-0.87,5.98-4.34,5.99c-12.04,0.04-18.06,0.06-30.09,0.1c-3.76,0.01-4.05,1.71-4.05,4.55
				c0,15.9,0,23.88,0,39.91c0,2.29,0.29,2.58,3.47,2.58c15.28,0.02,22.92,0.03,38.2,0.05c6.08,0.01,6.37,0.01,6.37,6.05
				c0,7.37,0,11.07,0,18.47c0,4.62-0.87,5.2-3.47,5.19c-26.27-0.09-39.41-0.13-65.69-0.21c-2.32-0.01-2.89-0.3-2.89-4.04
				C648.52,690.84,648.52,629.86,648.52,568.89z"/>
			<path class="st0" d="M766.46,556.77c57.87-1.33,58.74,12.41,58.74,25.6c0,15.72,0,23.59,0,39.35c0,15.53-12.44,25.99-22.57,26.07
				c-0.58,0-1.16,0.29-1.16,0.87c0.12,0.11,0.17,0.17,0.29,0.29c0.87,0.85,8.1,6.25,11.57,20.93c1.45,7.77,1.74,17.87,1.74,27.98
				c0,8.67,0,13,0,21.69c0.29,6.95,4.34,7.54,7.81,7.54c5.21,0.01,5.21,5.23,5.21,8.13c0,5.69,0,8.54,0,14.24
				c0,7.84,0,9.3-6.65,9.28c-1.5-0.01-2.26-0.01-3.76-0.01c-17.36-0.06-27.49-1.56-27.49-13.16c0-29.45,0-44.1,0-73.29
				c0-9.2-7.52-10.59-14.76-10.55c-3.24,0.02-4.86,0.03-8.1,0.04c0,32.97,0,49.53,0,82.88c0,6.95-0.87,8.11-6.37,8.09
				c-6.13-0.02-9.2-0.03-15.34-0.05c-2.6-0.01-4.34-2.91-4.34-7.82c0-48.01,0-96.02,0-144.03c-1.39,0.02-2.08,0.03-3.47,0.05
				c-5.79,0.09-7.52,0.11-7.52-7.23c0-11.51,0-17.26,0-28.74c0-6.75,0.58-7.33,8.97-7.52C750.14,557.15,755.58,557.02,766.46,556.77
				z M763.85,581.77c0,19.51,0,29.29,0,48.9c0,1.03,0,1.54,0,2.57c5.44-0.05,8.16-0.08,13.6-0.13c16.21-0.15,18.81-1.35,18.81-25.08
				c0-25.45-0.29-26.84-19.1-26.5C771.84,581.62,769.18,581.67,763.85,581.77z"/>
			<path class="st0" d="M923.85,594.64c0,12.85-0.29,12.27-0.29,13.15c0,0.58,0,0.88,0,1.46c0,1.75-0.58,4.1-4.92,4.15
				c-7.06,0.09-10.59,0.13-17.65,0.22c-3.76,0.05-3.76-1.12-3.76-3.44c0-5.7,0-8.55,0-14.25c0-3.2-0.29-15.4-11.57-15.2
				c-12.15,0.22-16.78,15.05-16.78,26.63c0,19.39,0.87,26.63,17.36,26.48c33.85-0.31,37.32,20.69,37.32,54.57
				c0,7.89-0.29,15.19-0.29,24.53c0,39.43-8.68,47.58-41.66,47.47c-18.81-0.06-41.66-3.11-41.66-39.09c0-17.99,0-26.96,0-44.89
				c0-4.34,1.16-5.21,4.63-5.22c7.52-0.03,11.28-0.05,18.81-0.08c3.18-0.01,4.34,3.17,4.34,6.94c0,8.82,0,13.23,0,22.06
				c0,12.78,0.58,25.29,15.91,25.31c12.73,0.02,14.47-2.9,14.47-16.59c0-6.29,0-9.44,0-15.73c0-6.76,0-10.14,0-16.89
				c0-13.69-2.6-16.87-24.88-16.75c-32.12,0.18-32.41-24.66-32.41-48.86c0-0.92,0-1.38,0-2.31c0-46.09,16.78-55.34,39.93-55.88
				C913.72,551.65,923.85,558.42,923.85,594.64z"/>
		</g>
	</g>
	<g>
		<path class="st1" d="M302.42,785.48c21.38,0.09,23.28,9.06,23.28,23.17c0,11.02-0.21,22.47-11.43,22.43
			c-0.08,0.16-0.13,0.25-0.21,0.41c11.85,0.04,15.87,9.77,15.87,13.35c0,8.15,0,12.25,0,20.51c0,16.61-16.51,16.69-38.52,16.68
			c-7.28,0-10.92-0.01-18.2-0.01c-6.35,0-6.77-0.43-6.77-3.55c0-0.74,0-1.1,0-1.84c0-27.2,0-40.44,0-66.34
			c0-2.96-0.85-6.05-3.81-6.06c-1.48-0.01-1.06-0.14-1.9-0.14c-2.33-0.01-2.75-0.95-2.75-2.42c0-0.27,0-0.4,0-0.67
			c0-5.08,0-7.61,0-12.65c0-2.65,1.48-3.04,3.6-3.03C277.91,785.38,286.08,785.41,302.42,785.48z M284.43,798.83
			c0,0-0.42,11.22-0.42,21.93c0,3.12,5.29,3.14,11.22,3.17c8.68,0.03,11.64-0.37,11.64-5.24c0-3.79,0-5.68,0-9.44
			c0-9.55-2.12-10.33-9.74-10.36C292.05,798.86,289.51,798.85,284.43,798.83z M285.7,837.54c0,11.36,0,17.1,0,28.7
			c0,1.54,0,1.82,6.98,1.84c14.39,0.02,16.08-1.3,16.08-15.29c0-2.16,0-3.24,0-5.39c0-8.97-0.85-9.77-13.76-9.81
			C291.29,837.56,289.43,837.55,285.7,837.54z"/>
		<path class="st1" d="M246.29,810.2c0-0.07,0-0.13,0-0.21c0,0.51-14.02-19.9-8.4-19.41c-0.73-0.06-1.46-0.12-2.26-0.12
			c-39.55-0.17-59.33-0.25-98.88-0.42c-15.27-0.07-22.9,0.74-22.9,13.56c4.16,18.2,6.24,27.47,10.4,46.42
			c-2.08,7.01-3.12,10.55-5.2,17.68c0,5.83,0.85,11.7,6.79,11.71c23.47,0.02,41.74,0.03,65.2,0.05c23.21,0.02,24.93,4.6,47.82,0.04
			c11.23-2.24,7.47-13.52,7.5-24.34C246.4,839.9,246.38,824.92,246.29,810.2z"/>
		<path class="st1" d="M363.16,785.08c42.33,0.18,42.96,6.54,42.96,12.68c0,7.31,0,10.98,0,18.37c0,7.28-9.1,12.14-16.51,12.11
			c-0.42,0-0.85,0.13-0.85,0.4c0.08,0.05,0.13,0.08,0.21,0.14c0.63,0.41,5.93,3,8.47,9.98c0.63,2.05,1.27,4.52,1.27,7.4
			c0,0.55,0,0.82,0,1.37c0,2.88-0.08,9.59,0,13.51c0.1,4.88,1.27,5.27,6.14,5.28c0.63,0,1.27,0,1.9,0
			c20.66,0.04,30.99,0.06,51.64,0.1c3.6,0.01,5.08,0.28,5.08,1.12c0,6.37,0,9.57,0,15.99c0,3.77,0,4.47-4.87,4.47
			c-23.2,0-34.8,0-57.99,0c-12.7,0-20.11-3.11-20.11-8.72c0-15.99,0-23.89,0-39.49c0-4.38-5.5-5.07-10.79-5.09
			c-2.37-0.01-3.56-0.01-5.93-0.02c0,16.32,0,24.59,0,41.35c0,3.36-0.63,3.93-4.66,3.93c-4.49,0-6.73-0.01-11.22-0.01
			c-1.9,0-3.17-1.41-3.17-3.8c0-29.37,0-43.68,0-71.7c-1.02,0-1.52-0.01-2.54-0.01c-4.23-0.02-5.5-0.03-5.5-3.5
			c0-5.03,0-7.53,0-12.51c0-3.18,0.42-3.44,6.56-3.42C351.22,785.03,355.2,785.05,363.16,785.08z M361.25,796.76
			c0,9.17,0,13.79,0,23.09c0,0.49,0,0.73,0,1.22c3.98,0.02,5.97,0.02,9.95,0.04c11.85,0.05,13.76-0.52,13.76-11.67
			c0-11.95-0.21-12.58-13.97-12.64C367.09,796.79,365.14,796.78,361.25,796.76z M455.22,828.62c-5.25-0.02-7.87-0.03-13.12-0.05
			c-1.9-0.01-3.39,0.12-3.39,1.62c0,4.72,0,7.09,0,11.85c0,0.82,1.27,1.78,2.75,1.79c6.43,0.02,9.65,0.03,16.09,0.05
			c4.23,0.01,4.44,0.15,4.44,3.16c0,4.27,0,6.41,0,10.7c0,1.79-0.63,2.2-2.75,2.2c-15.15-0.04-22.73-0.05-37.89-0.09
			c-4.02-0.01-4.02-0.29-4.02-3.32c0-27.03,0-40.27,0-66.31c0-2.92,0-3.85,3.81-3.83c13.55,0.06,20.32,0.09,33.86,0.14
			c8.25,0.03,8.25,0.17,8.25,2.95c0,3.45,0,5.18,0,8.65c0,2.8-0.42,3.47-2.75,3.46c-8.64-0.04-12.95-0.06-21.59-0.09
			c-1.06,0-2.54,0.79-2.54,2.26c0,3.85,0,5.79,0,9.66c0,1.48,2.96,1.63,4.44,1.63c5.76,0.02,8.63,0.04,14.39,0.06
			c4.45,0.02,4.45,0.02,4.45,2.85c0,2.53,0,3.8,0,6.34C459.67,827.15,459.67,828.64,455.22,828.62z"/>
		<path class="st1" d="M488.86,787.73c2.33,0.01,2.54,0.14,2.75,1.87c4.74,27.18,7.11,40.98,11.85,69.06
			c0.42,0.82,0.85,1.1,1.27,1.1c0.63,0,1.06-0.96,1.27-1.92c4.49-26.67,6.73-39.76,11.22-65.61c0.85-3.19,1.27-3.58,5.71-3.57
			c6.01,0.03,9.02,0.04,15.03,0.06c2.33,0.01,2.54,0.14,2.75,1.87c3.39,25.34,5.08,38.17,8.47,64.2c0.85,5.06,1.48,10.14,2.12,10.14
			c0.64,0,1.27-6.17,1.9-10.95c4.15-26.76,6.22-39.92,10.37-65.95c0.42-2.39,0.64-2.79,2.75-2.78c5.25,0.02,7.87,0.03,13.12,0.06
			c2.33,0.01,3.17,0.68,3.17,2.01c0,0.53-0.21,1.2-0.42,1.99c-5.67,35.4-8.51,53.35-14.18,90.09c-0.85,4.28-2.54,4.42-5.29,4.41
			c-9.57,0-14.35-0.01-23.92-0.01c-5.93,0-5.08-0.56-5.5-3.74c-3.13-24.47-4.7-36.54-7.83-60.36c-3.81,22.61-5.71,34.05-9.52,57.3
			c-0.64,4.29-2.54,4.43-5.29,4.43c-8.04-0.01-12.06-0.01-20.11-0.01c-5.93,0-4.87-0.56-5.5-3.76
			c-5.93-35.16-8.89-52.35-14.81-86.04c0-0.43,0-0.64,0-1.06c0-2.53,2.12-2.91,5.5-2.9C480.99,787.7,483.61,787.71,488.86,787.73z"
			/>
		<path class="st1" d="M646.11,820.48c-0.21,0-0.42,0.27-0.42,0.67c0,22.31,0,33.55,0,56.27c0,2.87-2.33,3.7-5.93,3.69
			c-3.81,0-5.71,0-9.52-0.01c-2.96,0-2.96-0.83-2.96-3.02c0-30.06,0-44.87,0-74.18c-10.67-0.05-16-0.07-26.67-0.12
			c-8.47-0.3-9.1-0.98-9.1-2.58c0-0.27,0-0.53,0-0.93c0-4.27,0-6.4,0-10.66c0-2.93,2.12-3.45,7.41-3.42
			c12.53,0.05,18.8,0.08,31.33,0.13c0.34,0,0.51,0,0.85,0c7.11,0.03,10.67,0.04,17.78,0.07c3.39,0.01,3.39,0.01,4.02,1.88
			c7.45,24.67,11.17,37.12,18.62,62.23c0.85,0,1.27,0,2.12,0.01c0-24.76,0-37.02,0-61.35c0-1.86,0.21-2,2.75-1.98
			c3.81,0.02,5.71,0.02,9.52,0.04c3.39,0.01,3.81,0.28,3.81,2.01c0,35.1,0,52.82,0,88.77c0,2.73,0,4.09-3.39,4.09
			c-7.45,0-11.17-0.01-18.62-0.01c-3.81,0-4.23-0.41-4.66-2.05c-6.6-23.8-9.9-35.61-16.51-59.02
			C646.53,820.75,646.32,820.49,646.11,820.48z M591.92,812.2c0-2.15,0.21-2.55,3.17-2.53c5.33,0.02,8,0.03,13.33,0.06
			c3.39,0.01,3.39,0.82,3.39,2.96c0,26.28,0,39.57,0,66.49c0,1.92,0,3.16-2.54,3.16c-6.09,0-9.14-0.01-15.24-0.01
			c-2.12,0-2.12-1.38-2.12-2.89C591.92,852.19,591.92,838.76,591.92,812.2z"/>
		<path class="st1" d="M767.58,807.73c0,4.92,0,7.38,0,12.31c0,2.41,0,2.41-3.81,2.4c-5.16-0.02-7.75-0.03-12.91-0.05
			c-1.9-0.01-2.12-0.28-2.12-0.95c0-3.54,0-5.31,0-8.84c0-9.23-2.96-9.77-12.06-9.81c-15.45-0.07-16.09,9.66-16.09,26.73
			c0,1.61,0,3.23,0,4.98c0,3.66,0,5.49,0,9.16c0,10.52,1.48,21.63,12.06,21.66c7.83,0.02,15.45-2.14,15.45-9.7c0-3.13,0-4.7,0-7.82
			c0-2.16,0-2.16-3.39-2.17c-3.98-0.01-5.97-0.02-9.95-0.03c-2.54-0.01-2.96-0.28-2.96-2.84c0-2.43,0-3.64,0-6.06
			c0-2.42,0.21-3.5,4.23-3.48c13.21,0.05,19.81,0.07,33.02,0.12c2.96,0.01,3.17,0.15,3.17,2.83c0,5.37,0,8.06,0,13.45
			c0,1.75-0.21,2.02-4.02,2.01c-1.35,0-2.03-0.01-3.39-0.01c0,3.45,0,5.18,0,8.63c0,22-20.11,23.94-29.21,23.94
			c-1.52,0-2.29,0-3.81,0c-22.86-0.01-29.21-9.32-29.21-26.52c0-17.99,0-26.93,0-44.71c0-15.13,6.14-27.2,31.75-27.1
			C757.21,785.94,767.58,792.09,767.58,807.73z"/>
		<path class="st1" d="M901,793.28c-0.5-0.01-1.01-0.01-1.51-0.01c-23.95-0.08-21.93-0.05-45.89-0.13
			c-22.14-0.07-51.26-5.09-72.44,0.35c6.84,11.98,0.4,25.42,3.86,38.14c1.2,4.42,3.74,8.67,3.31,13.24
			c-0.22,2.28-1.17,4.42-2.11,6.51c-4.26,9.46-8.52,18.94-12.78,28.47c51.38,0.06,71.56,0.1,122.93,0.16
			c4.74,0.01,10.19-0.32,13.07-4.12c1.94-2.56,2.13-6.02,2.23-9.24c0.52-18.01,5.66-36,5.02-54c-0.23-6.44-1.1-13.92-6.53-17.34
			C907.48,793.62,904.21,793.33,901,793.28z"/>
	</g>
</g>
</svg>
